<?xml version="1.0" standalone="no"?>
<!DOCTYPE svg PUBLIC "-//W3C//DTD SVG 20010904//EN"
 "http://www.w3.org/TR/2001/REC-SVG-20010904/DTD/svg10.dtd">
<svg version="1.0" xmlns="http://www.w3.org/2000/svg"
 width="72.000000pt" height="57.000000pt" viewBox="0 0 72.000000 57.000000"
 preserveAspectRatio="xMidYMid meet">

<g transform="translate(0.000000,57.000000) scale(0.100000,-0.100000)"
fill="#000000" stroke="none">
<path d="M105 545 c-21 -20 -25 -34 -25 -87 0 -73 -27 -143 -59 -153 -27 -8
-27 -32 0 -40 32 -10 59 -80 59 -153 0 -53 4 -67 25 -87 l24 -25 231 0 231 0
24 25 c21 20 25 34 25 87 0 73 27 143 59 153 27 8 27 32 0 40 -32 10 -59 80
-59 153 0 53 -4 67 -25 87 l-24 25 -231 0 -231 0 -24 -25z m318 -116 c25 -11
47 -47 47 -75 0 -8 -11 -26 -25 -39 -16 -16 -19 -25 -10 -25 21 0 45 -40 45
-75 0 -21 -9 -40 -26 -56 -22 -21 -37 -24 -115 -27 l-89 -4 0 156 0 156 75 0
c41 0 85 -5 98 -11z"/>
<path d="M300 355 l0 -45 43 0 c43 0 77 21 77 48 0 20 -44 42 -82 42 l-38 0 0
-45z"/>
<path d="M300 220 l0 -50 43 0 c52 0 87 22 87 55 0 31 -26 45 -84 45 l-46 0 0
-50z"/>
</g>
</svg>
